<?xml version="1.0" encoding="UTF-8" standalone="no"?>
<!-- Created with Inkscape (http://www.inkscape.org/) -->

<svg
   width="82.197701mm"
   height="40.877098mm"
   viewBox="0 0 82.197701 40.877098"
   version="1.1"
   id="svg5"
   sodipodi:docname="logo-human-dark.svg"
   inkscape:version="1.2.2 (b0a8486541, 2022-12-01)"
   xmlns:inkscape="http://www.inkscape.org/namespaces/inkscape"
   xmlns:sodipodi="http://sodipodi.sourceforge.net/DTD/sodipodi-0.dtd"
   xmlns="http://www.w3.org/2000/svg"
   xmlns:svg="http://www.w3.org/2000/svg">
  <sodipodi:namedview
     id="namedview76"
     pagecolor="#ffffff"
     bordercolor="#000000"
     borderopacity="0.25"
     inkscape:showpageshadow="2"
     inkscape:pageopacity="0.0"
     inkscape:pagecheckerboard="0"
     inkscape:deskcolor="#d1d1d1"
     inkscape:document-units="mm"
     showgrid="false"
     inkscape:zoom="2.8694789"
     inkscape:cx="158.91387"
     inkscape:cy="102.80612"
     inkscape:window-width="1920"
     inkscape:window-height="1011"
     inkscape:window-x="0"
     inkscape:window-y="32"
     inkscape:window-maximized="1"
     inkscape:current-layer="svg5" />
  <defs
     id="defs2" />
  <text
     xml:space="preserve"
     style="font-size:21.1667px;fill:#ffffff;stroke-width:0.264583"
     x="-1.3970039"
     y="28.541613"
     id="text113"><tspan
       id="tspan111"
       style="font-style:normal;font-variant:normal;font-weight:800;font-stretch:normal;font-size:21.1667px;font-family:'Plus Jakarta Sans';-inkscape-font-specification:'Plus Jakarta Sans Ultra-Bold';fill:#ffffff;stroke-width:0.264583"
       x="-1.3970039"
       y="28.541613">HumAN</tspan></text>
  <text
     xml:space="preserve"
     style="font-size:6.35px;fill:#ffffff;fill-opacity:1;stroke-width:0.264583"
     x="58.723465"
     y="17.503008"
     id="text113-3"><tspan
       id="tspan111-6"
       style="font-style:normal;font-variant:normal;font-weight:800;font-stretch:normal;font-size:6.35px;font-family:'Plus Jakarta Sans';-inkscape-font-specification:'Plus Jakarta Sans Ultra-Bold';fill:#ffffff;fill-opacity:1;stroke-width:0.264583"
       x="58.723465"
       y="17.503008">i</tspan></text>
  <text
     xml:space="preserve"
     style="font-size:6.35px;fill:#ffffff;fill-opacity:1;stroke-width:0.117076"
     x="76.482712"
     y="17.57921"
     id="text113-7"><tspan
       id="tspan111-5"
       style="font-style:normal;font-variant:normal;font-weight:800;font-stretch:normal;font-size:6.35px;font-family:'Plus Jakarta Sans';-inkscape-font-specification:'Plus Jakarta Sans Ultra-Bold';fill:#ffffff;fill-opacity:1;stroke-width:0.117076"
       x="76.482712"
       y="17.57921">lp</tspan></text>
  <rect
     style="fill:#ffffff;fill-opacity:1;stroke:none;stroke-width:0.356518;stroke-opacity:1"
     id="rect1082"
     width="76.759888"
     height="11.085372"
     x="0.0074722404"
     y="29.791719" />
  <path
     id="rect1082-5"
     style="fill:#ffffff;fill-opacity:1;stroke:none;stroke-width:0.356518;stroke-opacity:1"
     d="M 0.0077514648 0 L 0.0077514648 11.085628 L 76.767924 11.085628 L 76.767924 0 L 0.0077514648 0 z M 20.984249 1.0562663 L 22.59707 1.0562663 L 22.59707 9.1953044 L 21.091736 9.1953044 L 21.091736 8.639266 C 20.911755 8.8360704 20.690181 8.9935528 20.42511 9.1095215 C 20.081049 9.25288 19.708752 9.3244954 19.307349 9.3244954 C 18.733915 9.3244954 18.221037 9.1881161 17.769458 8.9157349 C 17.317879 8.6433537 16.959801 8.2742241 16.694588 7.8083089 C 16.436543 7.3423937 16.307532 6.8263492 16.307532 6.260083 C 16.307532 5.6866489 16.43971 5.1706044 16.704924 4.7118571 C 16.970137 4.2459419 17.328731 3.8768123 17.78031 3.6044312 C 18.231889 3.33205 18.737398 3.1956706 19.296497 3.1956706 C 19.726572 3.1956706 20.106237 3.2783384 20.435962 3.4432007 C 20.648294 3.5425902 20.828864 3.672117 20.984249 3.8256063 L 20.984249 1.0562663 z M 1.4159342 1.1849406 L 3.0824992 1.1849406 L 3.0824992 7.7437134 L 6.4693726 7.7437134 L 6.4693726 9.1953044 L 1.4159342 9.1953044 L 1.4159342 1.1849406 z M 13.748515 1.1849406 L 15.361336 1.1849406 L 15.361336 2.797762 L 13.748515 2.797762 L 13.748515 1.1849406 z M 9.8991374 3.1956706 C 10.365053 3.1956706 10.777358 3.2709701 11.135754 3.4214966 C 11.494151 3.5648551 11.795349 3.7691658 12.039058 4.0343791 C 12.289936 4.2995923 12.47951 4.6076421 12.608533 4.9588704 C 12.737555 5.3029309 12.802319 5.6794287 12.802319 6.0880005 C 12.802319 6.2026873 12.794951 6.3174787 12.780615 6.4321655 C 12.773447 6.5396844 12.755543 6.6328878 12.726872 6.711735 L 8.6160116 6.711735 C 8.6352655 6.8618199 8.6717531 7.0016511 8.7271159 7.1308309 C 8.8346348 7.3817083 8.9994536 7.5791675 9.2216593 7.722526 C 9.443865 7.8587166 9.7129397 7.9266479 10.028328 7.9266479 C 10.315045 7.9266479 10.558848 7.8692522 10.75955 7.7545654 C 10.96742 7.6398786 11.128555 7.4819112 11.243241 7.2812093 L 12.533602 7.8940918 C 12.418915 8.1808088 12.236192 8.4319796 11.985315 8.6470174 C 11.741605 8.8620552 11.450943 9.0305582 11.11405 9.1524129 C 10.777158 9.2670997 10.408028 9.3244954 10.006624 9.3244954 C 9.3830148 9.3244954 8.8422149 9.1881161 8.3834676 8.9157349 C 7.9247203 8.6361858 7.5698105 8.2633721 7.3189331 7.7974569 C 7.0680557 7.3315417 6.9427287 6.8154971 6.9427287 6.249231 C 6.9427287 5.661461 7.0717398 5.1380482 7.3297852 4.6793009 C 7.5949984 4.2205537 7.9493915 3.8587924 8.3938029 3.5935791 C 8.8382143 3.3283658 9.3400391 3.1956706 9.8991374 3.1956706 z M 26.500191 3.1956706 C 26.966106 3.1956706 27.378412 3.2709701 27.736808 3.4214966 C 28.095205 3.5648551 28.395886 3.7691658 28.639596 4.0343791 C 28.890473 4.2995923 29.080564 4.6076421 29.209587 4.9588704 C 29.338609 5.3029309 29.403373 5.6794287 29.403373 6.0880005 C 29.403373 6.2026873 29.396005 6.3174787 29.381669 6.4321655 C 29.374501 6.5396844 29.356597 6.6328878 29.327926 6.711735 L 25.217065 6.711735 C 25.236319 6.8618191 25.272807 7.0016517 25.32817 7.1308309 C 25.435689 7.3817083 25.600508 7.5791675 25.822713 7.722526 C 26.044919 7.8587166 26.313994 7.9266479 26.629382 7.9266479 C 26.916099 7.9266479 27.159385 7.8692522 27.360087 7.7545654 C 27.567957 7.6398786 27.729608 7.4819112 27.844295 7.2812093 L 29.134139 7.8940918 C 29.019452 8.1808088 28.836729 8.4319796 28.585852 8.6470174 C 28.342143 8.8620552 28.051997 9.0305582 27.715104 9.1524129 C 27.378212 9.2670997 27.009082 9.3244954 26.607678 9.3244954 C 25.984069 9.3244954 25.442752 9.1881161 24.984005 8.9157349 C 24.525257 8.6361858 24.170348 8.2633721 23.91947 7.7974569 C 23.668593 7.3315417 23.543266 6.8154971 23.543266 6.249231 C 23.543266 5.661461 23.672277 5.1380482 23.930322 4.6793009 C 24.195536 4.2205537 24.550445 3.8587924 24.994857 3.5935791 C 25.439268 3.3283658 25.941093 3.1956706 26.500191 3.1956706 z M 33.499764 3.1956706 C 33.944175 3.1956706 34.331209 3.288874 34.660933 3.4752401 C 34.997826 3.6616061 35.259532 3.9233126 35.445898 4.2602051 C 35.632265 4.5899297 35.725468 4.9769631 35.725468 5.4213745 L 35.725468 9.1953044 L 34.112646 9.1953044 L 34.112646 5.7655396 C 34.112646 5.5361659 34.065786 5.3387067 33.972603 5.1738444 C 33.886588 5.0089821 33.761261 4.879971 33.596399 4.7867879 C 33.438705 4.6936049 33.252298 4.6472616 33.03726 4.6472616 C 32.82939 4.6472616 32.642983 4.6936049 32.478121 4.7867879 C 32.313259 4.879971 32.184247 5.0089821 32.091064 5.1738444 C 32.005049 5.3387067 31.961873 5.5361659 31.961873 5.7655396 L 31.961873 9.1953044 L 30.349052 9.1953044 L 30.349052 3.3248617 L 31.854386 3.3248617 L 31.854386 4.0483317 C 31.99031 3.7891394 32.178352 3.5882645 32.424377 3.453536 C 32.732598 3.2815057 33.091192 3.1956706 33.499764 3.1956706 z M 13.748515 3.3248617 L 15.361336 3.3248617 L 15.361336 9.1953044 L 13.748515 9.1953044 L 13.748515 3.3248617 z M 9.8991374 4.4860311 C 9.6195883 4.4860311 9.3794698 4.5539624 9.1787679 4.690153 C 8.978066 4.8263436 8.8274668 5.0269702 8.7271159 5.2921834 C 8.6991115 5.366195 8.6774177 5.4459184 8.658903 5.5288615 L 11.090279 5.5288615 C 11.080958 5.4391269 11.06621 5.3522688 11.039119 5.2709961 C 10.960272 5.0272866 10.820209 4.8371956 10.619507 4.701005 C 10.425973 4.5576465 10.185854 4.4860311 9.8991374 4.4860311 z M 26.500191 4.4860311 C 26.220642 4.4860311 25.980524 4.5539624 25.779822 4.690153 C 25.57912 4.8263436 25.428521 5.0269702 25.32817 5.2921834 C 25.300165 5.366195 25.277955 5.4459184 25.25944 5.5288615 L 27.690816 5.5288615 C 27.681495 5.4391328 27.666746 5.3522639 27.639657 5.2709961 C 27.560809 5.0272866 27.421263 4.8371956 27.220561 4.701005 C 27.027027 4.5576465 26.786908 4.4860311 26.500191 4.4860311 z M 19.500618 4.6472616 C 19.206734 4.6472616 18.941343 4.718877 18.704801 4.8622355 C 18.475428 4.9984261 18.296389 5.1885171 18.167367 5.4322266 C 18.038344 5.6687681 17.974097 5.9446943 17.974097 6.260083 C 17.974097 6.5754718 18.038344 6.855082 18.167367 7.0987915 C 18.296389 7.342501 18.475428 7.5320752 18.704801 7.6682658 C 18.941343 7.8044564 19.206734 7.8729045 19.500618 7.8729045 C 19.794503 7.8729045 20.052526 7.8044564 20.274731 7.6682658 C 20.496937 7.5320752 20.669124 7.342501 20.790979 7.0987915 C 20.920002 6.855082 20.984249 6.5754718 20.984249 6.260083 C 20.984249 5.9446943 20.920002 5.665084 20.790979 5.4213745 C 20.669124 5.177665 20.496937 4.9875741 20.274731 4.8513835 C 20.052526 4.7151929 19.794503 4.6472616 19.500618 4.6472616 z "
     inkscape:export-filename="logo-human-light.png"
     inkscape:export-xdpi="96"
     inkscape:export-ydpi="96" />
</svg>
